<svg width="37" height="40" viewBox="0 0 37 40" fill="none" xmlns="http://www.w3.org/2000/svg">
<g clip-path="url(#clip0_11_735)">
<path d="M7.55324 25.9381H27.4971C32.7682 25.9381 36.6895 21.9365 36.6895 16.9868C36.6895 11.8601 32.5112 8.11566 27.0631 8.11566C25.0543 4.14619 21.3259 1.59094 16.6814 1.59094C10.6388 1.59094 5.6569 6.33182 5.12656 12.294C2.21777 13.1458 0 15.6689 0 19.0598C0 22.8686 2.76417 25.9381 7.55324 25.9381ZM8.46927 33.9575C8.75856 33.9575 8.96747 33.6843 8.9514 33.395L8.85498 31.8522L10.1246 32.7199C10.3496 32.8807 10.7192 32.8164 10.8799 32.5753C11.0245 32.3342 10.9442 31.9646 10.6228 31.8199L9.25675 31.1451L10.6388 30.4541C10.9442 30.3094 11.0085 29.9719 10.896 29.7147C10.7513 29.4576 10.3496 29.4094 10.1246 29.5702L8.85498 30.4541L8.96747 28.9113C8.99961 28.6058 8.75856 28.3488 8.46927 28.3488C8.1318 28.3488 7.93895 28.6058 7.95501 28.9113L8.05144 30.4541L6.76578 29.5702C6.52471 29.4094 6.18724 29.4415 6.02653 29.7147C5.88189 29.9719 5.94617 30.3094 6.25152 30.4541L7.6336 31.1451L6.25152 31.8199C5.94617 31.9646 5.86581 32.3182 6.01045 32.5753C6.15509 32.8325 6.52471 32.8807 6.76578 32.7361L8.05144 31.8682L7.97109 33.395C7.95501 33.6843 8.1318 33.9575 8.46927 33.9575ZM17.3724 33.9575C17.6617 33.9575 17.8707 33.6843 17.8546 33.395L17.7581 31.8522L19.0278 32.7199C19.2527 32.8807 19.6223 32.8164 19.7831 32.5753C19.9278 32.3342 19.8473 31.9646 19.5259 31.8199L18.1439 31.1451L19.542 30.4541C19.8473 30.3094 19.9116 29.9719 19.7991 29.7147C19.6546 29.4576 19.2527 29.4094 19.0278 29.5702L17.7581 30.4541L17.8707 28.9113C17.9028 28.6058 17.6617 28.3488 17.3724 28.3488C17.035 28.3488 16.8422 28.6058 16.8581 28.9113L16.9546 30.4541L15.6529 29.5702C15.4279 29.4094 15.0904 29.4415 14.9297 29.7147C14.7851 29.9719 14.8494 30.3094 15.1547 30.4541L16.5367 31.1451L15.1547 31.8199C14.8494 31.9646 14.769 32.3182 14.9136 32.5753C15.0583 32.8325 15.4279 32.8807 15.6529 32.7361L16.9546 31.8682L16.8743 33.395C16.8581 33.6843 17.035 33.9575 17.3724 33.9575ZM26.2757 33.9575C26.565 33.9575 26.7738 33.6843 26.7578 33.395L26.6453 31.8522L27.931 32.7199C28.156 32.8807 28.5256 32.8164 28.6862 32.5753C28.8309 32.3342 28.7505 31.9646 28.4292 31.8199L27.047 31.1451L28.4453 30.4541C28.7505 30.3094 28.8149 29.9719 28.7023 29.7147C28.5577 29.4576 28.156 29.4094 27.931 29.5702L26.6453 30.4541L26.7738 28.9113C26.8061 28.6058 26.565 28.3488 26.2757 28.3488C25.9381 28.3488 25.7453 28.6058 25.7614 28.9113L25.8578 30.4541L24.5561 29.5702C24.3312 29.4094 23.9936 29.4415 23.8329 29.7147C23.6882 29.9719 23.7526 30.3094 24.0578 30.4541L25.44 31.1451L24.0578 31.8199C23.7526 31.9646 23.6723 32.3182 23.8169 32.5753C23.9614 32.8325 24.3312 32.8807 24.5561 32.7361L25.8578 31.8682L25.7775 33.395C25.7614 33.6843 25.9381 33.9575 26.2757 33.9575ZM4.98192 39.9999C5.27119 39.9999 5.48013 39.7108 5.46405 39.4215L5.36763 37.8947L6.63721 38.7626C6.87828 38.9072 7.23183 38.8429 7.39254 38.6018C7.53718 38.3607 7.45682 37.9911 7.13541 37.8464L5.7694 37.1877L7.15147 36.4965C7.45682 36.3519 7.5211 35.9984 7.4086 35.7573C7.26397 35.5003 6.87828 35.452 6.63721 35.5967L5.36763 36.4965L5.48012 34.9378C5.51226 34.6323 5.27119 34.3753 4.98192 34.3753C4.64445 34.3753 4.4516 34.6323 4.46766 34.9378L4.56409 36.4965L3.27843 35.5967C3.03736 35.452 2.69988 35.4841 2.53918 35.7573C2.39454 35.9984 2.45882 36.3359 2.76417 36.4965L4.14625 37.1877L2.76417 37.8626C2.45882 38.0072 2.37847 38.3448 2.5231 38.6018C2.66774 38.875 3.03736 38.9232 3.27843 38.7626L4.56409 37.8947L4.48374 39.4215C4.46766 39.7108 4.64445 39.9999 4.98192 39.9999ZM13.8851 39.9999C14.1744 39.9999 14.3833 39.7108 14.3672 39.4215L14.2708 37.8947L15.5404 38.7626C15.7654 38.9072 16.135 38.8429 16.2957 38.6018C16.4404 38.3607 16.36 37.9911 16.0386 37.8464L14.6565 37.1877L16.0547 36.4965C16.36 36.3519 16.4243 35.9984 16.3118 35.7573C16.1672 35.5003 15.7654 35.452 15.5404 35.5967L14.2708 36.4965L14.3833 34.9378C14.4155 34.6323 14.1744 34.3753 13.8851 34.3753C13.5476 34.3753 13.3548 34.6323 13.3709 34.9378L13.4673 36.4965L12.1656 35.5967C11.9406 35.452 11.6031 35.4841 11.4424 35.7573C11.2977 35.9984 11.362 36.3359 11.6673 36.4965L13.0494 37.1877L11.6673 37.8626C11.362 38.0072 11.2817 38.3448 11.4263 38.6018C11.5709 38.875 11.9406 38.9232 12.1656 38.7626L13.4673 37.8947L13.3869 39.4215C13.3709 39.7108 13.5476 39.9999 13.8851 39.9999ZM22.7884 39.9999C23.0775 39.9999 23.2865 39.7108 23.2704 39.4215L23.158 37.8947L24.4436 38.7626C24.6685 38.9072 25.0381 38.8429 25.1989 38.6018C25.3436 38.3607 25.2633 37.9911 24.9417 37.8464L23.5597 37.1877L24.9578 36.4965C25.2633 36.3519 25.3274 35.9984 25.215 35.7573C25.0704 35.5003 24.6685 35.452 24.4436 35.5967L23.158 36.4965L23.2865 34.9378C23.3186 34.6323 23.0775 34.3753 22.7884 34.3753C22.4509 34.3753 22.258 34.6323 22.2741 34.9378L22.3705 36.4965L21.0687 35.5967C20.8437 35.452 20.5062 35.4841 20.3456 35.7573C20.2009 35.9984 20.2653 36.3359 20.5705 36.4965L21.9526 37.1877L20.5705 37.8626C20.2653 38.0072 20.1848 38.3448 20.3295 38.6018C20.4741 38.875 20.8437 38.9232 21.0687 38.7626L22.3705 37.8947L22.2901 39.4215C22.2741 39.7108 22.4509 39.9999 22.7884 39.9999Z" fill="white" fill-opacity="0.85"/>
</g>
<defs>
<clipPath id="clip0_11_735">
<rect width="36.6895" height="40" fill="white"/>
</clipPath>
</defs>
</svg>
