<svg width="40" height="40" viewBox="0 0 40 40" fill="none" xmlns="http://www.w3.org/2000/svg">
<g clip-path="url(#clip0_11_581)">
<path d="M19.917 29.3874C25.0391 29.3874 29.2951 25.1312 29.2951 19.9908C29.2951 14.8319 25.0391 10.5758 19.917 10.5758C14.795 10.5758 10.5389 14.8319 10.5389 19.9908C10.5389 25.1312 14.795 29.3874 19.917 29.3874ZM19.9355 7.1672C20.8015 7.1672 21.5199 6.44863 21.5199 5.56425V1.60295C21.5199 0.718561 20.8015 0 19.9355 0C19.0512 0 18.3325 0.718561 18.3325 1.60295V5.56425C18.3325 6.44863 19.0512 7.1672 19.9355 7.1672ZM28.9636 10.9442C29.59 11.5523 30.6034 11.5707 31.2297 10.9442L34.0488 8.12528C34.6567 7.51727 34.6567 6.48548 34.0488 5.85905C33.4407 5.25102 32.4274 5.25102 31.801 5.85905L28.9636 8.69645C28.3556 9.32289 28.3556 10.3362 28.9636 10.9442ZM32.7038 19.9908C32.7038 20.8567 33.4407 21.5752 34.3067 21.5752H38.268C39.134 21.5752 39.8525 20.8567 39.8525 19.9908C39.8525 19.1248 39.134 18.3878 38.268 18.3878H34.3067C33.4407 18.3878 32.7038 19.1248 32.7038 19.9908ZM28.9636 29.0372C28.3556 29.6638 28.3556 30.6771 28.9636 31.285L31.801 34.1409C32.4274 34.7305 33.4407 34.712 34.0488 34.1224C34.6567 33.496 34.6567 32.4827 34.0488 31.8746L31.2114 29.0372C30.6034 28.4476 29.59 28.4476 28.9636 29.0372ZM19.9355 32.8144C19.0512 32.8144 18.3325 33.5328 18.3325 34.3988V38.3786C18.3325 39.2446 19.0512 39.963 19.9355 39.963C20.8015 39.963 21.5199 39.2446 21.5199 38.3786V34.3988C21.5199 33.5328 20.8015 32.8144 19.9355 32.8144ZM10.889 29.0372C10.2625 28.4476 9.23076 28.4476 8.62274 29.0372L5.80377 31.8563C5.19576 32.4642 5.19576 33.4775 5.78535 34.1041C6.39336 34.6937 7.42515 34.712 8.05158 34.1224L10.8706 31.285C11.4786 30.6771 11.4786 29.6638 10.889 29.0372ZM7.14877 19.9908C7.14877 19.1248 6.41179 18.3878 5.54582 18.3878H1.58452C0.718561 18.3878 0 19.1248 0 19.9908C0 20.8567 0.718561 21.5752 1.58452 21.5752H5.54582C6.41179 21.5752 7.14877 20.8567 7.14877 19.9908ZM10.8706 10.9442C11.4786 10.3547 11.4786 9.30445 10.889 8.69645L8.07 5.85905C7.46199 5.26946 6.4302 5.25102 5.8222 5.85905C5.21418 6.48548 5.21418 7.51727 5.80377 8.10686L8.62274 10.9442C9.23076 11.5523 10.2441 11.5523 10.8706 10.9442Z" fill="white" fill-opacity="0.85"/>
</g>
<defs>
<clipPath id="clip0_11_581">
<rect width="39.8525" height="40" fill="white"/>
</clipPath>
</defs>
</svg>
