<svg width="29" height="40" viewBox="0 0 29 40" fill="none" xmlns="http://www.w3.org/2000/svg">
<g clip-path="url(#clip0_11_158)">
<path d="M5.40906 38.9667H23.5908C26.512 38.9667 28.0619 37.377 28.0619 34.2375V20.5465C28.0619 17.4267 26.512 15.8371 23.5908 15.8371H5.40906C2.48804 15.8371 0.93811 17.4267 0.93811 20.5465V34.2375C0.93811 37.377 2.48804 38.9667 5.40906 38.9667ZM5.5084 35.9663C4.65395 35.9663 4.15718 35.4297 4.15718 34.4561V20.3279C4.15718 19.3542 4.65395 18.8376 5.5084 18.8376H23.4915C24.3659 18.8376 24.8426 19.3542 24.8426 20.3279V34.4561C24.8426 35.4297 24.3659 35.9663 23.4915 35.9663H5.5084ZM4.4155 17.3671H7.57497V10.6706C7.57497 5.64332 10.7742 3.0005 14.49 3.0005C18.2059 3.0005 21.4448 5.64332 21.4448 10.6706V17.3671H24.5844V11.0879C24.5844 3.61649 19.6962 0 14.49 0C9.30374 0 4.4155 3.61649 4.4155 11.0879V17.3671Z" fill="white"/>
</g>
<defs>
<clipPath id="clip0_11_158">
<rect width="27.1237" height="40" fill="white" transform="translate(0.93811)"/>
</clipPath>
</defs>
</svg>
