<svg width="40" height="40" viewBox="0 0 40 40" fill="none" xmlns="http://www.w3.org/2000/svg">
<g clip-path="url(#clip0_11_768)">
<path d="M8.15409 26.4105H29.6844C35.3748 26.4105 39.608 22.0906 39.608 16.7471C39.608 11.2127 35.0973 7.17033 29.2159 7.17033C27.0473 2.8851 23.0223 0.126587 18.0084 0.126587C11.4851 0.126587 6.10689 5.24458 5.53437 11.6811C2.39418 12.6006 0 15.3244 0 18.9851C0 23.0968 2.98405 26.4105 8.15409 26.4105ZM8.60516 34.5299L10.8606 30.609C11.1902 30.0885 11.0167 29.4813 10.4962 29.169C9.97577 28.8741 9.38587 29.0302 9.05623 29.568L6.78351 33.5237C6.48857 34.0094 6.64471 34.6166 7.18254 34.9289C7.68566 35.2238 8.31023 35.033 8.60516 34.5299ZM12.6475 39.4744L17.7655 30.5917C18.0604 30.0712 17.9217 29.4813 17.4185 29.1864C16.9154 28.8741 16.2735 29.0302 15.9786 29.568L10.8952 38.4161C10.6003 38.9366 10.7391 39.5438 11.2596 39.8561C11.7627 40.151 12.3525 39.9775 12.6475 39.4744ZM22.4151 34.5126L24.6704 30.5917C24.9827 30.0712 24.8093 29.464 24.2888 29.1517C23.7683 28.8568 23.1785 29.0128 22.8662 29.5507L20.5934 33.5063C20.2985 33.9921 20.4373 34.5993 20.9751 34.9116C21.4955 35.2065 22.1201 35.0157 22.4151 34.5126ZM26.44 39.4571L31.5754 30.5743C31.8703 30.0538 31.7142 29.464 31.2111 29.169C30.7253 28.8568 30.1007 29.0128 29.7885 29.5507L24.6878 38.3988C24.3928 38.9192 24.549 39.5265 25.0521 39.8387C25.5552 40.1337 26.1451 39.9775 26.44 39.4571Z" fill="white" fill-opacity="0.85"/>
</g>
<defs>
<clipPath id="clip0_11_768">
<rect width="39.608" height="40" fill="white"/>
</clipPath>
</defs>
</svg>
