<svg width="41" height="40" viewBox="0 0 41 40" fill="none" xmlns="http://www.w3.org/2000/svg">
<g clip-path="url(#clip0_11_834)">
<path d="M20.5 39.9804C31.4358 39.9804 40.4902 30.9064 40.4902 19.9902C40.4902 9.05438 31.4162 0 20.4803 0C9.56415 0 0.509766 9.05438 0.509766 19.9902C0.509766 30.9064 9.58375 39.9804 20.5 39.9804ZM20.5 36.6486C11.2496 36.6486 3.86106 29.2405 3.86106 19.9902C3.86106 10.7398 11.23 3.3317 20.4803 3.3317C29.7307 3.3317 37.1584 10.7398 37.1584 19.9902C37.1584 29.2405 29.7503 36.6486 20.5 36.6486ZM17.0703 30.9652H25.0467C25.8503 30.9652 26.4774 30.3772 26.4774 29.5738C26.4774 28.8094 25.8503 28.2019 25.0467 28.2019H22.6165V18.2264C22.6165 17.1681 22.0874 16.4625 21.0879 16.4625H17.4034C16.6 16.4625 15.9728 17.07 15.9728 17.8343C15.9728 18.6379 16.6 19.2259 17.4034 19.2259H19.5005V28.2019H17.0703C16.2667 28.2019 15.6396 28.8094 15.6396 29.5738C15.6396 30.3772 16.2667 30.9652 17.0703 30.9652ZM20.3236 13.2092C21.7543 13.2092 22.8714 12.0725 22.8714 10.6419C22.8714 9.21117 21.7543 8.07447 20.3236 8.07447C18.9125 8.07447 17.7758 9.21117 17.7758 10.6419C17.7758 12.0725 18.9125 13.2092 20.3236 13.2092Z" fill="white" fill-opacity="0.85"/>
</g>
<defs>
<clipPath id="clip0_11_834">
<rect width="39.9804" height="40" fill="white" transform="translate(0.509766)"/>
</clipPath>
</defs>
</svg>
