<svg width="41" height="40" viewBox="0 0 41 40" fill="none" xmlns="http://www.w3.org/2000/svg">
<g clip-path="url(#clip0_11_714)">
<path d="M20.5 39.9805C31.4359 39.9805 40.4903 30.9065 40.4903 19.9902C40.4903 9.05441 31.4162 0 20.4804 0C9.56414 0 0.509735 9.05441 0.509735 19.9902C0.509735 30.9065 9.58373 39.9805 20.5 39.9805ZM20.5 36.6487C11.2496 36.6487 3.86104 29.2406 3.86104 19.9902C3.86104 10.7399 11.23 3.33171 20.4804 3.33171C29.7307 3.33171 37.1585 10.7399 37.1585 19.9902C37.1585 29.2406 29.7503 36.6487 20.5 36.6487ZM15.718 14.6987H30.4166C31.0831 14.6987 31.6121 14.1891 31.6121 13.5228C31.6121 12.8369 31.0831 12.3273 30.4166 12.3273H15.718C15.0516 12.3273 14.5421 12.8565 14.5421 13.5228C14.5421 14.1696 15.0713 14.6987 15.718 14.6987ZM15.718 27.6728H30.4166C31.0831 27.6728 31.6121 27.1633 31.6121 26.4968C31.6121 25.8109 31.0831 25.3013 30.4166 25.3013H15.718C15.0713 25.3013 14.5421 25.8502 14.5421 26.4968C14.5421 27.1633 15.0516 27.6728 15.718 27.6728ZM15.718 21.1857H30.4166C31.0831 21.1857 31.6121 20.6761 31.6121 20.0098C31.6121 19.3239 31.0831 18.8143 30.4166 18.8143H15.718C15.0713 18.8143 14.5421 19.3631 14.5421 20.0098C14.5421 20.6566 15.0713 21.1857 15.718 21.1857ZM10.9948 15.2083C11.9159 15.2083 12.6803 14.4243 12.6803 13.5228C12.6803 12.5821 11.9355 11.8374 10.9948 11.8374C10.0541 11.8374 9.30937 12.5821 9.30937 13.5228C9.30937 14.4439 10.0541 15.2083 10.9948 15.2083ZM10.9948 21.6952C11.9159 21.6952 12.6803 20.9113 12.6803 20.0098C12.6803 19.0887 11.9159 18.3244 10.9948 18.3244C10.0541 18.3244 9.30937 19.0691 9.30937 20.0098C9.30937 20.931 10.0541 21.6952 10.9948 21.6952ZM10.9948 28.1824C11.9355 28.1824 12.6803 27.418 12.6803 26.4968C12.6803 25.5757 11.9159 24.8115 10.9948 24.8115C10.0541 24.8115 9.30937 25.5562 9.30937 26.4968C9.30937 27.418 10.0541 28.1824 10.9948 28.1824Z" fill="white" fill-opacity="0.85"/>
</g>
<defs>
<clipPath id="clip0_11_714">
<rect width="39.9805" height="40" fill="white" transform="translate(0.509735)"/>
</clipPath>
</defs>
</svg>
